User Type,Username,Date,Text
,Cinema09,2009-10-17T15:21Z,"Can You add some info to the movie
Please"
,Pwnzorz,2009-10-20T05:09Z,WOAH 21.22 GIGZ? AMAZING. But seriousily...no thanx.
[V],oneanight,2009-10-20T05:44Z,"@ Cinema09 




General
Format                           : Matroska
File size                        : 21.2 GiB
Duration                         : 2h 29mn
Overall bit rate                 : 20.3 Mbps
Movie name                       : Transformers.II.2009.BluRay.1080p.DTS.x264.dxva-EuReKA
Encoded date                     : UTC 2009-10-08 14:03:03
Writing application              : mkvmerge v2.9.7 ('Tenderness') built on Jul  1 2009 18:43:35
Writing library                  : libebml v0.7.7 + libmatroska v0.8.1

Video
ID                               : 1
Format                           : AVC
Format/Info                      : Advanced Video Codec
Format profile                   : High@L4.1
Format settings, CABAC           : Yes
Format settings, ReFrames        : 5 frames
Muxing mode                      : Container profile=Unknown@4.1
Codec ID                         : V_MPEG4/ISO/AVC
Duration                         : 2h 29mn
Bit rate                         : 18.1 Mbps
Nominal bit rate                 : 18.6 Mbps
Width                            : 1 920 pixels
Height                           : 800 pixels
Display aspect ratio             : 2.400
Frame rate                       : 23.976 fps
Resolution                       : 24 bits
Colorimetry                      : 4:2:0
Scan type                        : Progressive
Bits/(Pixel*Frame)               : 0.492
Stream size                      : 18.9 GiB (89%)
Title                            : x264 - 2 passes @ 60% of the original bitrate
Writing library                  : x264 core 75 r1259M dd026f2
Encoding settings                : cabac=1 / ref=5 / deblock=1:-3:-3 / analyse=0x3:0x113 / me=umh / subme=10 / psy=1 / psy_rd=1.0:0.0 / mixed_ref=1 / me_range=64 / chroma_me=1 / trellis=2 / 8x8dct=1 / cqm=0 / deadzone=21,11 / chroma_qp_offset=-2 / threads=12 / nr=0 / decimate=0 / mbaff=0 / bframes=5 / b_pyramid=0 / b_adapt=2 / b_bias=0 / direct=2 / wpredb=1 / keyint=250 / keyint_min=25 / scenecut=40 / rc_lookahead=50 / rc=2pass / mbtree=1 / bitrate=18622 / ratetol=1.0 / qcomp=0.60 / qpmin=10 / qpmax=51 / qpstep=4 / cplxblur=20.0 / qblur=0.5 / vbv_maxrate=30000 / vbv_bufsize=38000 / ip_ratio=1.40 / aq=1:0.50 / pulldown=0 / nal_hrd=0
Language                         : English

Audio #1
ID                               : 2
Format                           : DTS
Format/Info                      : Digital Theater Systems
Codec ID                         : A_DTS
Duration                         : 2h 29mn
Bit rate mode                    : Constant
Bit rate                         : 1 536 Kbps
Channel(s)                       : 6 channels
Channel positions                : Front: L C R, Surround: L R, LFE
Sampling rate                    : 48.0 KHz
Resolution                       : 24 bits
Stream size                      : 1.61 GiB (8%)
Title                            : DTS - 1536 kbit/sec
Language                         : English

Audio #2
ID                               : 3
Format                           : AC-3
Format/Info                      : Audio Coding 3
Codec ID                         : A_AC3
Duration                         : 2h 29mn
Bit rate mode                    : Constant
Bit rate                         : 224 Kbps
Channel(s)                       : 2 channels
Channel positions                : L R
Sampling rate                    : 48.0 KHz
Stream size                      : 240 MiB (1%)
Title                            : Commentary by Michael Bay, Robert Orci, and Alex Kurtzman
Language                         : English

Text
ID                               : 4
Format                           : UTF-8
Codec ID                         : S_TEXT/UTF8
Codec ID/Info                    : UTF-8 Plain Text
Language                         : English

Menu
00:00:00.000                     : en:00:00:00.000
00:08:49.279                     : en:00:08:49.279
00:14:52.642                     : en:00:14:52.642
00:18:18.014                     : en:00:18:18.014
00:25:07.631                     : en:00:25:07.631
00:33:00.520                     : en:00:33:00.520
00:37"
,Cinema09,2009-10-22T18:33Z,thanks for the info  but is too big and not 1920x1080 Resolution if you upload movies try to upload them in 1920x1080 I would download them
,sirwimpyix,2009-11-13T11:56Z,"2 Cinema09: Of course this is 1080p release.. Don't be stupid and read about the formats used.. Does anything like cropping and aspect ratio sound familiar, huh? Please google it and don't confuse others..."
,xiIix,2009-12-18T05:30Z,"If it's too big for you then move onto something smaller you fucking pussy. And while you're at it, take a trip over to doom9.org and increase your IQ, because you don't know your ass from your elbow when it comes to media."
,LAMBORGHINI38,2010-01-08T09:53Z,where are the subs??
,3lirocker007,2011-08-07T06:00Z,is this the imax edition????????
,3lirocker007,2011-08-11T15:49Z,pls seed this..........pls pls pls pls pls pls pls pls pls pls pls pls pls........seedseedseedseedseedseedseedseexdseedseedseedseedessdseedseedsweedseddseedseedseed
